<svg version="1" xmlns="http://www.w3.org/2000/svg" width="533.333" height="533.333" viewBox="0 0 400.000000 400.000000"><path d="M331.9 98.4c-.2.2-4.4.6-9.4.9-4.9.3-10.1 1-11.5 1.5-1.4.5-2.8 1-3.3 1-2 .1-7.3 1.6-10.4 2.8l-3.4 1.5 7.3 4.9c11.2 7.6 23.5 19.9 30.1 30.2 3.2 5 4 5.7 7.9 6.3 7 1.1 10.9 2.7 19 7.8 9.5 6 13.6 7.2 18.4 5.7 7.4-2.5 19.5-18 20.7-26.6.6-3.8-1.5-9.9-4.4-13-2.9-3-16.5-11.2-24.5-14.6-8.7-3.7-19.8-6.7-27.9-7.4-3.8-.3-7.3-.8-7.6-1-.3-.2-.8-.2-1 0zM23 100.7C11 102 6.2 105 4 112.5c-.8 2.9-1 27.2-.8 89 .3 95.8-.2 89.3 8.1 93.7l4.2 2.3h119c93.1 0 120.1-.3 124-1.3 2.8-.7 6-1.4 7.2-1.7 5.6-1 5.6-2-.4-6.1-13.9-9.4-26.4-22.9-32.7-35.2l-1.7-3.2H141c-49.5 0-90-.3-90-.8 0-.4-.1-30-.1-65.7 0-35.8-.5-67.3-1-70-1.5-8.2-7-11.8-19.4-12.7-2.7-.2-6.1-.2-7.5-.1z"/><path d="M145 101.5c-6.3 1.4-8.8 3.3-11.2 8.5-2.1 4.4-2.1 5.8-2 54.8.1 57.7.2 59.5 5.7 63.5 5.1 3.7 18.4 5.2 29.1 3.3 4.5-.9 8.9-4.1 10.9-8.1 1.9-3.8 2-6.1 2.1-38.6.1-19.1.4-35.1.7-35.5.6-1.1 64.4-1 69.5 0 20.3 4.1 36.8 20.9 40.3 41 1.2 7.2.7 18-1.1 23.3-.9 2.5-.7 3.9 1 7.5 5.1 11 19.6 20.3 34.3 22.1 3.8.5 3.8.5 6.2-5 5.4-12 7.6-22.4 8-37.3.9-28.3-8-50.8-27.9-70.5-14-13.9-28.8-22.4-47.1-27l-11-2.8-51.5-.2c-33.2 0-53.1.3-56 1z"/><path d="M235.5 159.4c-1.6 2.5-5 14-6.4 21.6-1 5.8-.8 31.4.3 36.5 3.2 14.7 6.2 22.7 12.7 34.2 5.1 8.9 17.1 21.7 27.1 28.7 11.2 7.8 30.3 16.4 40.3 18 1.7.3 5.9 1 9.4 1.5 6.4 1 20.6.8 26.6-.4 19.7-3.9 40.9-14.1 48.5-23.3 2.4-2.9 3-4.6 3-8.3 0-8.8-10.3-24.7-18.8-29-4.1-2-4.4-2.1-9.3-.5-2.8.9-7.4 3.3-10.2 5.3-18.4 12.9-45.6 11.3-64.6-3.8-14.5-11.6-21.6-33.9-16.8-52.6 1.3-4.9 1.3-5.5-.7-8.6-8.1-13.1-19.7-20.1-35.1-21.2-3.8-.2-4.8.1-6 1.9z"/></svg>