<?xml version="1.0" encoding="utf-8"?>
<!-- Generator: Adobe Illustrator 16.2.1, SVG Export Plug-In . SVG Version: 6.00 Build 0)  -->
<!DOCTYPE svg PUBLIC "-//W3C//DTD SVG 1.1//EN" "http://www.w3.org/Graphics/SVG/1.1/DTD/svg11.dtd">
<svg version="1.1" id="Capa_1" xmlns="http://www.w3.org/2000/svg" xmlns:xlink="http://www.w3.org/1999/xlink" x="0px" y="0px"
	 width="30.9px" height="30px" viewBox="3.906 4.356 30.9 30" enable-background="new 3.906 4.356 30.9 30" xml:space="preserve">
<g opacity="0.4">
	<path d="M34.804,33.391c-0.002,0.253-0.02,0.396-0.02,0.396l-0.574,0.55c0,0-0.154,0.015-0.418,0.016
		c-0.139,0.006-0.299,0.002-0.477-0.007c-0.184-0.008-0.4-0.008-0.621-0.037c-0.443-0.043-0.982-0.094-1.531-0.22
		c-0.562-0.118-1.166-0.275-1.773-0.499c-0.609-0.221-1.234-0.49-1.844-0.831c-0.609-0.337-1.207-0.734-1.713-1.255
		c-0.514-0.507-0.924-1.155-1.322-1.824c-0.396-0.674-0.807-1.351-1.275-1.975c-0.66-0.867-1.296-1.74-1.911-2.603
		c1.552-0.891,2.895-2.08,3.92-3.498c0.859,0.555,1.723,1.133,2.586,1.723c0.648,0.449,1.361,0.84,2.066,1.219
		c0.707,0.38,1.383,0.77,1.918,1.26c0.547,0.479,0.963,1.051,1.316,1.633c0.354,0.579,0.641,1.176,0.871,1.757
		c0.232,0.575,0.4,1.152,0.523,1.686c0.131,0.526,0.188,1.042,0.23,1.465c0.033,0.204,0.033,0.415,0.043,0.587
		C34.804,33.108,34.808,33.257,34.804,33.391z M20.363,23.729c-1.627,0.912-3.513,1.443-5.536,1.443
		c-6.033,0-10.922-4.66-10.922-10.408c0-5.748,4.891-10.409,10.922-10.409c6.034,0,10.924,4.661,10.924,10.41
		c0,2.2-0.725,4.239-1.945,5.922C22.906,21.922,21.727,22.96,20.363,23.729z M17.716,19.66c0.709-0.378,1.322-0.896,1.809-1.509
		c0.75-0.942,1.197-2.112,1.197-3.386c0-3.104-2.636-5.62-5.893-5.62c-3.256,0-5.897,2.516-5.897,5.62
		c0,3.104,2.641,5.621,5.897,5.621C15.878,20.384,16.863,20.121,17.716,19.66z"/>
</g>
</svg>
